<svg width="100" height="100" viewBox="0 0 100 100" fill="none" xmlns="http://www.w3.org/2000/svg">
<mask id="mask0" mask-type="alpha" maskUnits="userSpaceOnUse" x="0" y="0" width="100" height="100">
<circle cx="50" cy="50" r="50" fill="#C4C4C4"/>
</mask>
<g mask="url(#mask0)">
<path d="M114 -8.33331H-14V119.667H114V-8.33331Z" fill="#FF7F57"/>
<path d="M59.2849 70.2153H41.5867V92.7648H59.2849V70.2153Z" fill="#F9DFA9"/>
<path d="M59.2399 70.2153V80.5468C52.3224 79.3789 46.1235 75.8752 41.5867 70.9341V70.2153H59.2399Z" fill="#EACE95"/>
<path d="M70.4698 44.6114C70.4698 57.6829 61.4859 73.9437 50.4358 73.9437C39.3856 73.9437 30.4018 57.638 30.4018 44.6114C30.4018 43.6232 30.4018 42.6799 30.4916 41.7365C31.0307 30.0575 35.7023 20.9839 50.3909 20.9839C65.0345 20.9839 69.7061 29.9677 70.335 41.5569C70.4249 42.59 70.4698 43.5782 70.4698 44.6114Z" fill="#FFE8B9"/>
<path d="M70.4697 44.6114C70.4697 57.6829 61.4859 73.9437 50.4357 73.9437V20.9839C66.2922 20.9839 70.4697 31.5848 70.4697 44.6114Z" fill="#F9DFA9"/>
<path d="M36.4209 48.5643C36.4209 52.5621 34.3097 55.7963 31.7044 55.7963C29.0991 55.7963 27.1226 50.8552 27.1226 46.8124C27.1226 42.8146 29.0991 41.2874 31.7044 41.2874C34.3546 41.3323 36.4209 44.5665 36.4209 48.5643Z" fill="#FFE8B9"/>
<path d="M64.3607 48.5643C64.3607 52.5621 66.4719 55.7963 69.0772 55.7963C71.6825 55.7963 73.6589 50.8552 73.6589 46.8124C73.6589 42.8146 71.6825 41.2874 69.0772 41.2874C66.4719 41.2874 64.3607 44.5665 64.3607 48.5643Z" fill="#F9DFA9"/>
<path d="M87 114.506H13.7816C13.7816 114.506 16.1623 92.8996 18.4083 90.1595C23.2147 84.2751 41.5866 80.1874 41.5866 80.1874C46.0336 81.4002 46.0336 81.4002 50.4357 81.4002C54.8378 81.4002 54.8378 81.4002 59.2848 80.1874C59.2848 80.1874 77.6119 84.2751 82.4182 90.1595C84.6642 92.8996 87 114.506 87 114.506Z" fill="#DBE0E2"/>
<path d="M87 114.506H50.3908V81.3553C54.7929 81.3553 55.1522 81.4901 59.2399 80.1425C59.2399 80.1425 77.567 83.9607 82.3733 89.8451C84.6642 92.6301 87 114.506 87 114.506Z" fill="#CBD0D3"/>
<path d="M59.2399 111.631H41.5867V77.0431C41.5867 82.7029 59.2399 82.4783 59.2849 77.0431V111.631H59.2399Z" fill="#49535D"/>
<path d="M41.0027 69.9458C41.0027 69.9458 37.2744 70.7544 34.4894 72.2816C29.3686 75.0666 27.1676 80.1874 27.1676 80.1874C27.1676 80.1874 35.7921 76.9083 39.2059 78.211C40.6883 78.7949 40.7781 78.9746 40.3738 79.0195C37.9033 79.2441 35.5225 79.9628 33.1867 80.7714L27.1676 82.8826C27.1676 82.8826 25.236 89.6205 31.4798 101.165C37.8583 112.934 50.3908 120.974 50.3908 120.974V110.957C50.3908 110.957 46.1684 101.794 44.5513 95.0108C40.6433 78.5703 41.7214 70.5747 41.7214 70.5747L41.0027 69.9458Z" fill="#ECF0F1"/>
<path d="M59.7791 69.9458C59.7791 69.9458 63.5074 70.7544 66.2923 72.2816C71.4131 75.0666 73.6142 80.1874 73.6142 80.1874C73.6142 80.1874 64.9897 76.9083 61.5758 78.211C60.0935 78.7949 60.0037 78.9746 60.4079 79.0195C62.2496 79.1992 64.0464 79.5136 65.7982 80.1425L73.6142 82.9275C73.6142 82.9275 75.5457 89.6654 69.3019 101.21C62.9234 112.978 50.3909 121.019 50.3909 121.019V111.002C50.3909 111.002 54.6133 101.839 56.2304 95.0557C60.1384 78.6153 59.0603 70.6196 59.0603 70.6196L59.7791 69.9458Z" fill="#E6EAEB"/>
<path d="M69.212 36.1666C68.3136 20.4448 50.3459 17.7497 38.6669 21.7924C36.4209 22.6908 34.175 24.9368 32.3782 26.2843C28.8745 29.3389 28.9643 33.8757 28.4702 38.6821C29.683 40.0296 29.5483 41.0179 30.0873 41.3323C30.267 41.4221 30.3568 41.512 30.3568 41.512C31.345 45.1055 31.8841 48.8338 31.8841 52.5621C31.8841 53.5054 31.8841 54.4487 32.2884 55.3022C32.6926 56.1556 33.6359 56.7845 34.5343 56.515C34.0402 51.2145 33.591 45.9141 33.0969 40.6136C32.8274 37.4243 34.3097 34.4147 36.2412 31.8543C38.1728 29.2939 41.0027 27.4073 44.1021 26.5539C45.1802 26.2394 46.3481 26.1047 47.4711 26.3293C48.594 26.5539 49.6721 27.1827 50.1662 28.171C52.9063 26.1496 57.0838 25.9699 60.0934 27.4522C62.4292 28.5752 64.181 30.6864 65.304 33.0222C66.427 35.358 66.9211 37.9184 67.1906 40.5237C67.7746 45.8691 66.966 51.5739 64.9896 56.5599C65.3489 57.0091 66.1125 57.3235 66.6516 57.2337C67.1906 57.1439 67.7296 56.7845 67.9542 56.2455C70.0205 51.3942 70.9189 46.8124 70.5146 41.5569C70.6045 41.5569 70.6943 41.6018 70.7841 41.6018C71.5478 41.6467 70.1104 40.8382 71.1435 39.8949C69.0323 39.4457 69.4366 38.3227 69.212 36.1666Z" fill="#D9C3A7"/>
<path d="M28.4702 31.3602C28.4702 31.5848 28.5151 31.8094 28.5151 32.0789C28.605 31.8992 28.6499 31.7196 28.7397 31.5399C28.6499 31.45 28.5601 31.4051 28.4702 31.3602Z" fill="#9C8276"/>
<path d="M71.413 39.3109C71.5029 39.3558 71.5927 39.4007 71.6825 39.4457C71.7724 39.4007 71.9071 39.3109 71.997 39.266C71.7724 39.3109 71.5927 39.3109 71.413 39.3109Z" fill="#9C8276"/>
<path d="M71.0986 39.3558C71.1435 39.3109 71.1435 39.266 71.1884 39.2211C70.1104 38.5024 69.3468 37.4692 69.212 36.2115C68.3136 20.4898 50.3459 17.7946 38.6669 21.8373C36.4209 22.7357 34.175 24.9817 32.3782 26.3293C30.9857 27.587 29.9077 29.0693 29.0991 30.7763C29.1889 31.1356 29.3237 31.4501 29.4585 31.8094C29.2339 31.6297 29.0093 31.6297 28.7847 31.5399C28.6948 31.7196 28.6499 31.8993 28.5601 32.0789C28.6948 33.5613 28.8296 35.0436 28.9194 36.5709C28.5601 36.3912 28.2007 36.2564 27.8414 36.0767C28.9644 37.6938 29.728 39.4906 30.1323 41.4221C30.3119 41.512 30.4018 41.6018 30.4018 41.6018C31.39 45.1954 31.929 48.9236 31.929 52.6519C31.929 53.5953 31.929 54.5386 32.3333 55.392C32.7376 56.2455 33.6809 56.8744 34.5793 56.6048C34.0851 51.3044 33.636 46.0039 33.1418 40.7034C32.8723 37.5142 34.3547 34.5046 36.2862 31.9442C38.2177 29.3838 41.0476 27.4972 44.1471 26.6437C45.2251 26.3293 46.393 26.1945 47.516 26.4191C48.639 26.6437 49.717 27.2726 50.2112 28.2608C52.9512 26.2394 57.1287 26.0597 60.1383 27.5421C62.4741 28.6651 64.226 30.7763 65.3489 33.1121C66.4719 35.4479 66.966 38.0083 67.2356 40.6136C67.8195 45.959 67.011 51.6637 65.0345 56.6498C65.3939 57.099 66.1575 57.4134 66.6965 57.3236C67.2356 57.2337 67.7746 56.8744 67.9992 56.3353C70.0655 51.484 70.9639 46.9023 70.5596 41.6467C70.6494 41.6467 70.7393 41.6916 70.8291 41.6916C70.7393 40.8831 70.9639 39.9847 71.6376 39.5355C71.5478 39.4906 71.458 39.4457 71.3681 39.4008C71.2783 39.3109 71.1884 39.3109 71.0986 39.3558Z" fill="#9C8276"/>
<path d="M69.1671 41.6018C63.0581 42.051 56.9041 42.5451 50.7951 42.9943C50.6604 42.9943 50.5256 42.9943 50.3459 42.9494C50.2112 42.9494 50.0764 42.9494 49.8967 42.9943C43.7877 42.5451 37.6338 42.051 31.5248 41.6018C30.9857 41.5569 30.5814 42.051 30.6713 42.5451C30.6713 42.6349 30.7162 42.6798 30.7162 42.7697C31.1205 44.3419 32.0189 45.7344 33.2317 46.7675C35.7022 48.8787 38.5322 51.1696 41.8562 51.8434C48.9983 53.3257 47.6957 48.4295 50.301 48.4295C52.9063 48.4295 51.6037 53.3257 58.7458 51.8434C62.0698 51.1696 64.8548 48.8787 67.3703 46.7675C68.5831 45.7344 69.4815 44.3419 69.8858 42.7697C69.8858 42.6798 69.9307 42.59 69.9307 42.5451C70.1104 42.051 69.7061 41.5569 69.1671 41.6018Z" fill="#292F33"/>
<path d="M46.1235 46.0039C46.3032 46.2285 46.3032 46.5429 46.2134 46.8124C46.1235 47.0819 45.8989 47.3065 45.6743 47.4862C44.5963 48.4295 43.0241 48.744 41.6316 48.2948C40.2391 47.8905 39.1161 46.7226 38.7568 45.3301C41.0027 44.7461 43.4284 44.8809 45.5845 45.6445C45.7642 45.7344 45.9888 45.8242 46.1235 46.0039Z" fill="#FFE8B9"/>
<path d="M54.6132 46.0039C54.4335 46.2285 54.4335 46.5429 54.5234 46.8124C54.6132 47.0819 54.8378 47.3065 55.0624 47.4862C56.1405 48.4295 57.7126 48.744 59.1051 48.2948C60.4976 47.8905 61.6206 46.7226 61.98 45.3301C59.734 44.7461 57.3084 44.8809 55.1522 45.6445C54.9276 45.7344 54.748 45.8242 54.6132 46.0039Z" fill="#FFE8B9"/>
<path d="M73.03 39.8949C65.6183 38.9965 58.1168 38.5473 50.5704 38.5473C43.1138 38.5473 35.6123 38.9965 28.0659 39.8949C28.0659 36.3462 28.1108 32.1238 28.9193 28.126C30.6263 19.771 35.6572 12.0449 50.5704 12H50.7501C65.798 12 70.6493 19.7261 72.2664 28.126C73.03 32.1687 73.03 36.3462 73.03 39.8949Z" fill="#323338"/>
<path d="M73.03 39.8949C65.6183 38.9965 58.1168 38.5473 50.5704 38.5473V12H50.7501C65.798 12 70.6493 19.7261 72.2664 28.126C73.03 32.1687 73.03 36.3462 73.03 39.8949Z" fill="#2F3033"/>
<path d="M73.2995 40.3441C73.2995 40.928 72.7605 41.3772 72.1765 41.2874C64.8547 40.4339 57.7125 40.0296 50.4805 40.0296C43.4282 40.0296 36.286 40.4788 28.9193 41.2874C28.3353 41.3323 27.8412 40.928 27.8412 40.3441C27.7963 37.1548 27.5717 33.6062 28.1107 30.1474C28.2006 29.6084 28.5599 29.2041 29.054 29.0244C36.1513 26.8234 43.2934 25.7453 50.4805 25.7004C57.6676 25.7004 64.8547 26.7784 72.1316 28.9795C72.6257 29.1142 73.03 29.5634 73.0749 30.1025C73.6139 33.6511 73.3444 37.1997 73.2995 40.3441Z" fill="#2C2D30"/>
<path d="M73.2995 40.3441C73.2995 40.928 72.7605 41.3772 72.1765 41.2874C64.8547 40.4339 57.7125 40.0296 50.4805 40.0296V25.7004C57.6676 25.7004 64.8547 26.7784 72.1316 28.9795C72.6257 29.1142 73.03 29.5634 73.0749 30.1025C73.6139 33.6511 73.3444 37.1997 73.2995 40.3441Z" fill="#28292B"/>
</g>
</svg>
