<svg width="60" height="60" viewBox="0 0 60 60" fill="none" xmlns="http://www.w3.org/2000/svg">
<mask id="mask0" mask-type="alpha" maskUnits="userSpaceOnUse" x="0" y="0" width="60" height="60">
<circle cx="30" cy="30" r="30" fill="#C4C4C4"/>
</mask>
<g mask="url(#mask0)">
<path d="M68.4001 -4.79999H-8.3999V72H68.4001V-4.79999Z" fill="#FF7F57"/>
<path d="M36.0674 44.7872C36.0674 46.2208 34.5826 47.936 29.9234 47.936C25.2642 47.936 23.677 46.2208 23.677 44.7872C23.677 43.3536 26.493 42.7904 29.9234 42.7904C33.3538 42.7904 36.0674 43.3536 36.0674 44.7872Z" fill="#202024"/>
<path d="M35.0436 41.8943H24.9572V54.7456H35.0436V41.8943Z" fill="#F9DFA9"/>
<path d="M35.0436 41.8943V47.7823C31.0756 47.1167 27.5684 45.1199 24.9572 42.3039V41.8943H35.0436Z" fill="#EACE95"/>
<path d="M41.418 27.3024C41.418 34.752 36.298 44.0192 30.0004 44.0192C23.7028 44.0192 18.5828 34.7264 18.5828 27.3024C18.5828 19.8528 23.7028 13.8368 30.0004 13.8368C36.298 13.8368 41.418 19.8784 41.418 27.3024Z" fill="#FFE8B9"/>
<path d="M41.4178 27.3024C41.4178 34.752 36.2978 44.0192 30.0002 44.0192V13.8368C36.2978 13.8368 41.4178 19.8784 41.4178 27.3024Z" fill="#F9DFA9"/>
<path d="M22.0387 29.5552C22.0387 31.8336 20.8355 33.6768 19.3507 33.6768C17.8659 33.6768 16.7395 30.8608 16.7395 28.5568C16.7395 26.2784 17.8659 25.408 19.3507 25.408C20.8355 25.4336 22.0387 27.2768 22.0387 29.5552Z" fill="#FFE8B9"/>
<path d="M37.9618 29.5552C37.9618 31.8336 39.165 33.6768 40.6498 33.6768C42.1346 33.6768 43.261 30.8608 43.261 28.5568C43.261 26.2784 42.1346 25.408 40.6498 25.408C39.165 25.408 37.9618 27.2768 37.9618 29.5552Z" fill="#F9DFA9"/>
<path d="M31.1779 9.48483C26.8515 9.66403 25.6227 9.97123 23.1395 11.4048C21.6803 12.2496 20.2211 14.1952 19.1203 16.1664C17.1491 19.6992 17.6099 26.0736 17.6099 26.0736C17.6099 26.0736 18.1475 25.5616 18.7107 25.5104C19.2739 25.4336 19.4275 29.7856 19.4275 29.7856H20.0675C20.0675 29.7856 20.3235 27.6096 20.8867 26.0992C20.8867 26.0992 21.7571 24.512 21.1683 23.4368C20.5795 22.3872 20.9635 18.9312 22.8835 17.7024C24.9059 16.3968 26.8259 17.1392 31.3059 18.5984C35.1971 19.8784 36.7331 17.8048 37.3731 18.5216C38.7555 20.1088 38.5507 22.1312 38.5507 22.1312C38.5507 22.1312 38.5251 22.7968 38.2435 23.6928C38.0131 24.4352 38.8323 25.536 39.1139 26.0992C39.8563 27.5584 39.9331 29.7856 39.9331 29.7856H40.5731C40.5731 29.7856 40.7523 25.4336 41.2899 25.5104C41.8531 25.5872 42.3907 26.0736 42.3907 26.0736C42.3907 26.0736 42.8771 19.4944 41.0851 15.8592C39.4211 12.5824 36.2723 9.28003 31.1779 9.48483Z" fill="#3B322F"/>
<path d="M40.5987 25.7408C37.1171 25.9968 33.6099 26.2784 30.1283 26.5344C30.0515 26.5344 29.9747 26.5344 29.8723 26.5088C29.7955 26.5088 29.7187 26.5088 29.6163 26.5344C26.1347 26.2784 22.6275 25.9968 19.1459 25.7408C18.8387 25.7152 18.6083 25.9968 18.6595 26.2784C18.6595 26.3296 18.6851 26.3552 18.6851 26.4064C18.9155 27.3024 19.4275 28.096 20.1187 28.6848C21.5267 29.888 23.1395 31.1936 25.0339 31.5776C29.1043 32.4224 28.3619 29.632 29.8467 29.632C31.3315 29.632 30.5891 32.4224 34.6595 31.5776C36.5539 31.1936 38.1411 29.888 39.5747 28.6848C40.2659 28.096 40.7779 27.3024 41.0083 26.4064C41.0083 26.3552 41.0339 26.304 41.0339 26.2784C41.1363 25.9968 40.9059 25.7152 40.5987 25.7408Z" fill="#292F33"/>
<path d="M27.4657 28.2496C27.5681 28.3776 27.5681 28.5568 27.5169 28.7104C27.4657 28.864 27.3377 28.992 27.2097 29.0944C26.5953 29.632 25.6993 29.8112 24.9057 29.5552C24.1121 29.3248 23.4721 28.6592 23.2673 27.8656C24.5473 27.5328 25.9297 27.6096 27.1585 28.0448C27.2609 28.096 27.3889 28.1472 27.4657 28.2496Z" fill="#FFE8B9"/>
<path d="M32.3042 28.2496C32.2018 28.3776 32.2018 28.5568 32.253 28.7104C32.3042 28.864 32.4322 28.992 32.5602 29.0944C33.1746 29.632 34.0706 29.8112 34.8642 29.5552C35.6578 29.3248 36.2978 28.6592 36.5026 27.8656C35.2226 27.5328 33.8402 27.6096 32.6114 28.0448C32.4834 28.096 32.381 28.1472 32.3042 28.2496Z" fill="#FFE8B9"/>
<path d="M42.8004 24.768C38.5764 24.256 34.3012 24 30.0004 24C25.7508 24 21.4756 24.256 17.1748 24.768C17.1748 22.7456 17.2004 20.3392 17.6612 18.0608C18.634 13.2992 21.5012 8.89596 29.9748 8.87036H30.0772C38.6532 8.87036 41.418 13.2736 42.3396 18.0608C42.8004 20.3648 42.8004 22.7456 42.8004 24.768Z" fill="#323338"/>
<path d="M42.8004 24.768C38.5764 24.256 34.3012 24 30.0004 24V8.87036H30.1028C38.6788 8.87036 41.4436 13.2736 42.3652 18.0608C42.8004 20.3648 42.8004 22.7456 42.8004 24.768Z" fill="#2F3033"/>
<path d="M42.954 25.024C42.954 25.3568 42.6468 25.6128 42.314 25.5616C38.1412 25.0752 34.0708 24.8448 29.9492 24.8448C25.93 24.8448 21.8596 25.1008 17.6612 25.5616C17.3284 25.5872 17.0468 25.3568 17.0468 25.024C17.0212 23.2064 16.8932 21.184 17.2004 19.2128C17.2516 18.9056 17.4564 18.6752 17.738 18.5728C21.7828 17.3184 25.8532 16.704 29.9492 16.6784C34.0452 16.6784 38.1412 17.2928 42.2884 18.5472C42.57 18.624 42.8004 18.88 42.826 19.1872C43.1332 21.184 42.9796 23.2064 42.954 25.024Z" fill="#2C2D30"/>
<path d="M42.954 25.024C42.954 25.3568 42.6468 25.6128 42.314 25.5616C38.1412 25.0752 34.0708 24.8448 29.9492 24.8448V16.6784C34.0452 16.6784 38.1412 17.2928 42.2884 18.5472C42.57 18.624 42.8004 18.88 42.826 19.1872C43.1332 21.184 42.9796 23.2064 42.954 25.024Z" fill="#28292B"/>
<path d="M34.762 40.4608C34.122 40.8192 32.3812 41.7408 30.922 41.0496C29.6164 40.4352 30.3844 40.4096 29.1044 41.0496C27.6452 41.7664 25.8788 41.0752 25.2644 40.4608C24.4452 39.616 21.8596 40.4864 20.554 34.3936C20.3236 33.2672 19.7092 33.856 19.7092 33.856C19.7092 33.856 19.4532 46.2208 29.9492 46.2208H30.1028C40.5988 46.2208 40.3428 33.8816 40.3428 33.8816C40.3428 33.8816 39.6772 33.3184 39.4724 34.3936C38.4228 39.9488 35.786 39.872 34.762 40.4608Z" fill="#2F343B"/>
<path d="M50.8642 67.136H9.13623C9.13623 67.136 10.493 54.6688 11.773 53.0816C14.5122 49.728 24.9826 47.552 24.9826 47.552C27.517 48.2432 27.517 48.2432 30.0258 48.2432C32.5346 48.2432 32.5346 48.2432 35.069 47.552C35.069 47.552 45.5138 49.728 48.253 53.0816C49.5074 54.6688 50.8642 67.136 50.8642 67.136Z" fill="#28292B"/>
<path d="M36.0674 49.0368C36.0674 53.4656 23.7026 53.4656 23.7026 49.0368V44.6848C23.7794 48.448 36.1442 48.3712 36.0674 44.6848V49.0368Z" fill="#303136"/>
</g>
</svg>
