<svg width="100" height="100" viewBox="0 0 100 100" fill="none" xmlns="http://www.w3.org/2000/svg">
<mask id="mask0" mask-type="alpha" maskUnits="userSpaceOnUse" x="0" y="0" width="100" height="100">
<circle cx="50" cy="50" r="50" fill="#C4C4C4"/>
</mask>
<g mask="url(#mask0)">
<path d="M104 -8H-5V102H104V-8Z" fill="#FF7F57"/>
<path d="M79.2105 103.237H20.7988C20.7988 103.237 22.2293 83.0515 24.0571 80.5085C27.236 76.0978 37.4878 72.7202 42.6137 71.5282C42.6932 75.9786 46.3092 100.933 50.0046 100.972C53.7 100.972 57.5147 76.0183 57.5544 71.5282C57.5544 71.5282 72.1375 75.7004 76.0316 81.1442C77.8992 83.6873 79.2105 103.237 79.2105 103.237Z" fill="#DBE0E2"/>
<path d="M79.2104 103.237H50.084L50.0046 100.972C53.7 100.972 57.5147 76.0183 57.5544 71.5282C57.5544 71.5282 72.1374 75.7004 76.0316 81.1442C77.8991 83.6873 79.2104 103.237 79.2104 103.237Z" fill="#CFD4D6"/>
<path d="M71.1045 95.2902H57.5546V98.1512H71.1045V95.2902Z" fill="#ECF0F1"/>
<path d="M42.5739 95.2902H29.024V98.1512H42.5739V95.2902Z" fill="#ECF0F1"/>
<path d="M35.7791 85.9523C39.7527 85.0384 42.1766 82.6542 44.7991 81.5019C48.3754 79.9522 51.9516 79.7138 55.5278 81.4224C59.5809 83.3297 63.2366 86.9854 69.1969 85.9125C69.1969 85.9125 62.2034 78.1641 62.6405 70.7732C63.2763 60.0842 65.5412 38.5871 65.5015 38.5474C65.4618 38.5474 44.9978 32.5076 36.2957 38.2295C36.2957 38.2295 31.13 42.3621 33.3552 50.5476C37.0109 63.6207 35.7791 85.9523 35.7791 85.9523Z" fill="#574A48"/>
<path d="M57.1173 60.8392C56.8789 63.9783 57.1967 71.6076 58.0312 83.6476H41.7395C42.2958 74.7468 42.8918 64.8923 42.6534 60.8392H57.1173V60.8392Z" fill="#F9DFA9"/>
<path d="M57.1173 60.8392C57.0378 64.8128 57.0378 67.7533 57.3557 72.3626C51.6735 71.2897 46.3886 67.5148 42.6534 62.9452V60.8392H57.1173Z" fill="#EACE95"/>
<path d="M57.5544 68.9056V90.9192L50.5212 101.648H49.647L42.6138 90.959V68.9056C42.6138 69.4221 42.7727 69.9387 43.0111 70.4155C44.084 72.4421 47.1437 74.0712 50.1636 74.0315C53.104 73.9917 56.0048 72.3228 57.0776 70.3758C57.3955 69.899 57.5544 69.3824 57.5544 68.9056Z" fill="#80C5D9"/>
<path d="M50.0445 101.648V102.323L49.6074 101.648L42.6139 90.959L38.2033 84.2039L42.1371 80.9853H37.9648C38.2033 76.058 39.1172 74.1507 40.349 71.846L42.6934 68.1903C42.8126 68.9056 42.8921 69.6605 43.0113 70.3758C44.4418 80.429 45.912 92.5484 50.0048 100.615L50.0445 101.648Z" fill="#ECF0F1"/>
<path d="M62.1638 80.9853H57.9915L61.9254 84.2039L57.5147 90.9192L50.4815 101.648L50.0444 102.323V101.648V100.655C54.1372 92.5881 55.6471 80.4687 57.0776 70.4155C57.1968 69.6606 57.2763 68.9453 57.3955 68.2301L59.7399 71.8858C61.8459 74.6275 62.2433 77.1706 62.1638 80.9853Z" fill="#E8ECED"/>
<path d="M37.6866 42.7197C37.8058 46.0575 35.9382 48.839 33.5541 48.9185C31.1699 48.998 29.2229 44.9052 29.1037 41.5674C28.9844 38.2296 30.7726 36.8786 33.1567 36.7991C35.5409 36.7196 37.5674 39.3819 37.6866 42.7197Z" fill="#FFE8B9"/>
<path d="M62.0842 42.7197C61.965 46.0575 63.8326 48.839 66.2167 48.9185C68.6009 48.998 70.5479 44.9052 70.6671 41.5674C70.7864 38.2296 68.9982 36.8786 66.6141 36.7991C64.2299 36.7196 62.2034 39.3819 62.0842 42.7197Z" fill="#FFE8B9"/>
<path d="M68.402 39.1832C68.402 48.0443 56.7197 66.2831 49.8851 66.2831C43.0506 66.2831 31.3682 49.1172 31.3682 39.1832C31.3682 27.1433 39.673 17.3682 49.8851 17.3682C60.0972 17.3682 68.402 27.1433 68.402 39.1832Z" fill="#FFE8B9"/>
<path d="M68.4021 39.1832C68.4021 48.0443 56.7198 66.2831 49.8852 66.2831V17.3683C60.0973 17.3683 68.4021 27.1433 68.4021 39.1832Z" fill="#F9DFA9"/>
<path d="M34.5475 43.8323C35.3422 40.9316 37.4482 36.0838 39.8721 34.3752C42.9715 38.7461 48.2564 43.4747 53.581 42.7992V26.0307H34.9051L34.5475 43.8323Z" fill="#F9DFA9"/>
<path d="M69.1971 84.045C69.7534 95.3697 63.2764 99.0651 59.6605 99.0651C65.7798 92.1113 49.1702 78.6806 60.7333 63.422C63.5943 52.9318 63.9122 45.5409 62.0446 42.7197C52.8656 42.7197 42.6535 36.799 39.872 32.9446C39.872 32.9446 39.872 32.9446 39.8323 32.9844C39.3157 33.501 33.9911 39.0242 34.6269 49.435C34.905 54.2033 36.2958 59.0511 37.011 63.6207C49.8855 81.1442 33.6335 93.3034 39.3952 98.5485C34.9448 97.6743 29.1831 92.5882 29.8983 83.6476C30.7328 73.0779 34.6269 71.8063 34.4282 63.7399C34.3885 61.5942 32.8785 59.4882 30.693 57.3027C23.3816 49.8721 21.9511 38.8653 25.9645 29.3684C27.7526 25.1167 32.4414 21.1034 36.7329 21.2226C36.7329 21.1034 36.7726 21.0239 36.7726 20.9047C37.4879 15.6993 45.7132 14.3085 50.2828 14.5867C59.9386 15.2225 70.5084 22.0173 73.2501 34.5341C74.323 39.5408 74.6011 50.5476 65.9387 58.7729C64.6672 59.965 63.2367 61.7929 63.0778 63.8591C62.4022 72.3229 68.8792 77.1707 69.1971 84.045Z" fill="#907264"/>
<path d="M69.197 84.045C69.7533 95.3697 63.2763 99.0651 59.6604 99.0651C65.7797 92.1114 49.1701 78.6806 60.7332 63.4221C63.5942 52.9318 63.9121 45.5409 62.0445 42.7197C52.8655 42.7197 42.6534 36.7991 39.8719 32.9447C39.8719 32.9447 39.8719 32.9447 39.8322 32.9844L36.7725 20.9047C37.4878 15.6993 45.7131 14.3086 50.2827 14.5867C59.9385 15.2225 70.5083 22.0173 73.25 34.5341C74.3229 39.5408 74.601 50.5477 65.9386 58.773C64.6671 59.9651 63.2366 61.7929 63.0777 63.8592C62.4021 72.3229 68.8791 77.1707 69.197 84.045Z" fill="#8A6D5F"/>
<path d="M61.1705 61.1174C59.8194 61.2366 59.3426 62.8657 59.9784 63.5015C60.8128 64.336 61.7268 64.8128 62.7996 64.932C63.9122 65.0512 64.9851 63.581 64.2699 62.7068C63.4751 61.7134 62.5215 60.9981 61.1705 61.1174Z" fill="#EB7063"/>
<path d="M33.8719 61.8723C32.9183 62.826 33.5938 64.3757 34.468 64.4552C35.6203 64.5744 36.6534 64.336 37.5276 63.7399C38.4416 63.1042 38.3224 61.316 37.2098 61.0776C36.0574 60.879 34.8653 60.9187 33.8719 61.8723Z" fill="#EB7063"/>
<path d="M67.7269 41.5276C61.846 41.9647 55.9651 42.4415 50.1239 42.8786C50.0047 42.8786 49.8458 42.8389 49.6868 42.8389C49.5676 42.8389 49.4087 42.8786 49.2895 42.8786C43.4086 42.4415 37.5277 41.9647 31.6865 41.5276C31.1699 41.4878 30.7726 41.9647 30.8918 42.4415C30.8918 42.521 30.9315 42.6004 30.9315 42.6799C31.3289 44.1899 32.1633 45.5409 33.3554 46.5343C35.7395 48.5608 38.4416 50.7463 41.6205 51.4218C48.4948 52.8126 47.2232 48.1635 49.7266 48.1635C52.2299 48.1635 50.9981 52.8523 57.8327 51.4218C61.0115 50.786 63.7136 48.5608 66.0977 46.5343C67.2898 45.5409 68.1243 44.1899 68.5216 42.6799C68.5614 42.6004 68.5614 42.521 68.5614 42.4415C68.6408 41.9647 68.2435 41.4878 67.7269 41.5276Z" fill="#292F33"/>
<path d="M45.5942 45.7396C45.7531 45.9383 45.7928 46.2562 45.6736 46.5343C45.5544 46.7727 45.3955 47.0111 45.1571 47.1701C44.1239 48.0443 42.614 48.3622 41.263 47.9648C39.9517 47.5674 38.8788 46.4548 38.4814 45.1436C40.6272 44.5873 42.9319 44.7065 45.0379 45.4614C45.2763 45.5012 45.475 45.5807 45.5942 45.7396Z" fill="#FFE8B9"/>
<path d="M53.74 45.7396C53.5811 45.9383 53.5414 46.2562 53.6606 46.5343C53.7798 46.7727 53.9784 47.0111 54.1771 47.1701C55.2103 48.0443 56.76 48.3622 58.0712 47.9648C59.3825 47.5674 60.4554 46.4548 60.8527 45.1436C58.707 44.5873 56.4023 44.7065 54.2963 45.4614C54.0977 45.5012 53.899 45.5807 53.74 45.7396Z" fill="#FFE8B9"/>
<path d="M74.0845 41.5673C65.7797 40.5342 57.3955 40.0574 48.9317 40.0574C40.5872 40.0574 32.2029 40.5739 23.7392 41.5673C23.7392 37.5938 23.7789 32.8652 24.6929 28.375C26.6002 18.9974 32.2427 10.3747 48.9317 10.2952H49.1304C65.9784 10.2952 71.4222 18.9576 73.2103 28.375C74.0845 32.8652 74.0845 37.554 74.0845 41.5673Z" fill="#323338"/>
<path d="M74.0844 41.5673C65.7796 40.5342 57.3954 40.0574 48.9316 40.0574V10.2952H49.1303C65.9783 10.2952 71.4221 18.9576 73.2102 28.375C74.0844 32.8652 74.0844 37.554 74.0844 41.5673Z" fill="#2F3033"/>
<path d="M75.1574 40.4547C75.1574 41.1302 74.5614 41.6468 73.8859 41.5673C65.4619 40.5739 57.1968 40.0971 48.8523 40.0971C40.7064 40.0971 32.4811 40.6137 23.9777 41.5673C23.3021 41.6468 22.7061 41.1302 22.7061 40.4547C22.6664 36.799 22.3882 32.7062 23.024 28.6532C23.1432 28.0571 23.5406 27.5406 24.1366 27.3816C32.3222 24.8783 40.5475 23.567 48.8523 23.567C57.1174 23.567 65.4619 24.8385 73.8064 27.3816C74.4024 27.5803 74.8395 28.0969 74.919 28.6929C75.515 32.7062 75.1972 36.799 75.1574 40.4547Z" fill="#2C2D30"/>
<path d="M75.1575 40.4547C75.1575 41.1302 74.5615 41.6468 73.8859 41.5673C65.4619 40.5739 57.1969 40.0971 48.8524 40.0971V23.567C57.1174 23.567 65.4619 24.8385 73.8065 27.3816C74.4025 27.5803 74.8396 28.0969 74.9191 28.6929C75.5151 32.7062 75.1972 36.799 75.1575 40.4547Z" fill="#28292B"/>
</g>
</svg>
