<svg width="92" height="8" viewBox="0 0 92 8" fill="none" xmlns="http://www.w3.org/2000/svg">
<path d="M8 4C8 6.20914 6.20914 8 4 8C1.79086 8 0 6.20914 0 4C0 1.79086 1.79086 0 4 0C6.20914 0 8 1.79086 8 4Z" fill="white" fill-opacity="0.3"/>
<path d="M20 4C20 6.20914 18.2091 8 16 8C13.7909 8 12 6.20914 12 4C12 1.79086 13.7909 0 16 0C18.2091 0 20 1.79086 20 4Z" fill="white" fill-opacity="0.3"/>
<path d="M32 4C32 6.20914 30.2091 8 28 8C25.7909 8 24 6.20914 24 4C24 1.79086 25.7909 0 28 0C30.2091 0 32 1.79086 32 4Z" fill="white" fill-opacity="0.3"/>
<path d="M44 4C44 6.20914 42.2091 8 40 8C37.7909 8 36 6.20914 36 4C36 1.79086 37.7909 0 40 0C42.2091 0 44 1.79086 44 4Z" fill="white" fill-opacity="0.3"/>
<path d="M56 4C56 6.20914 54.2091 8 52 8C49.7909 8 48 6.20914 48 4C48 1.79086 49.7909 0 52 0C54.2091 0 56 1.79086 56 4Z" fill="white" fill-opacity="0.3"/>
<path d="M68 4C68 6.20914 66.2091 8 64 8C61.7909 8 60 6.20914 60 4C60 1.79086 61.7909 0 64 0C66.2091 0 68 1.79086 68 4Z" fill="white" fill-opacity="0.3"/>
<path d="M80 4C80 6.20914 78.2091 8 76 8C73.7909 8 72 6.20914 72 4C72 1.79086 73.7909 0 76 0C78.2091 0 80 1.79086 80 4Z" fill="white" fill-opacity="0.3"/>
<path d="M92 4C92 6.20914 90.2091 8 88 8C85.7909 8 84 6.20914 84 4C84 1.79086 85.7909 0 88 0C90.2091 0 92 1.79086 92 4Z" fill="white" fill-opacity="0.3"/>
</svg>
