<svg width="20" height="18" viewBox="0 0 20 18" fill="none" xmlns="http://www.w3.org/2000/svg">
<path d="M11.9153 2.37959L11.9424 2.35398L11.9676 2.32641C13.5822 0.557863 16.1385 0.557863 17.7531 2.32641L17.7622 2.33637L17.7716 2.34609C19.4095 4.04572 19.4095 6.79486 17.7716 8.49449L16.5425 9.76986L9.99452 16.5646L3.35972 9.78408L2.26055 8.52944L2.24491 8.51159L2.22844 8.49449C0.59052 6.79486 0.59052 4.04572 2.22844 2.34609C3.84632 0.667247 6.43301 0.667247 8.05089 2.34609L8.06742 2.36324L8.08475 2.37959L9.3138 3.53901L10 4.18633L10.6862 3.53901L11.9153 2.37959Z" stroke="#FF7F57" stroke-width="2"/>
</svg>
