<svg width="15" height="15" viewBox="0 0 15 15" fill="none" xmlns="http://www.w3.org/2000/svg">
<path d="M7.5 14.5C11.3818 14.5 14.5 11.3818 14.5 7.5C14.5 3.61818 11.3818 0.5 7.5 0.5C3.61818 0.5 0.5 3.61818 0.5 7.5C0.5 11.3818 3.61818 14.5 7.5 14.5ZM7.5 1.77273C10.6818 1.77273 13.2273 4.31818 13.2273 7.5C13.2273 10.6818 10.6818 13.2273 7.5 13.2273C4.31818 13.2273 1.77273 10.6818 1.77273 7.5C1.77273 4.31818 4.31818 1.77273 7.5 1.77273Z" fill="white" fill-opacity="0.6"/>
<path d="M10.4909 9.6L8.13636 7.24545V3.04545H6.86364V7.75455L9.6 10.4909L10.4909 9.6Z" fill="white" fill-opacity="0.6"/>
</svg>
