<svg width="24" height="24" viewBox="0 0 24 24" fill="none" xmlns="http://www.w3.org/2000/svg">
<path d="M19.3554 2H4.47934C3.07438 2 2 3.07438 2 4.47934V15.2231C2 16.6281 3.07438 17.7025 4.47934 17.7025H5.30579V22L10.1818 17.7025H19.3554C20.7603 17.7025 21.8347 16.6281 21.8347 15.2231V4.47934C21.8347 3.07438 20.7603 2 19.3554 2ZM20.1818 15.2231C20.1818 15.719 19.8512 16.0496 19.3554 16.0496H9.52066L6.95868 18.3636V16.0496H4.47934C3.98347 16.0496 3.65289 15.719 3.65289 15.2231V4.47934C3.65289 3.98347 3.98347 3.65289 4.47934 3.65289H19.3554C19.8512 3.65289 20.1818 3.98347 20.1818 4.47934V15.2231Z" fill="white" fill-opacity="0.87"/>
<path d="M17.7025 6.95868H6.13223V8.61157H17.7025V6.95868Z" fill="white" fill-opacity="0.87"/>
<path d="M17.7025 10.2645H6.13223V11.9174H17.7025V10.2645Z" fill="white" fill-opacity="0.87"/>
</svg>
