<svg width="17" height="11" viewBox="0 0 17 11" fill="none" xmlns="http://www.w3.org/2000/svg">
<path d="M8.48756 0C5.55822 0 2.704 1.62294 0.375556 4.72127L0 5.16389L0.375556 5.60651C2.704 8.70484 5.55822 10.3278 8.48756 10.3278C11.4169 10.3278 14.2711 8.70484 16.5996 5.60651L16.9 5.16389L16.5244 4.72127C14.196 1.62294 11.4169 0 8.48756 0ZM6.23422 5.16389C6.23422 3.9098 7.21067 2.95079 8.48756 2.95079C9.76444 2.95079 10.7409 3.9098 10.7409 5.16389C10.7409 6.41798 9.76444 7.37698 8.48756 7.37698C7.21067 7.37698 6.23422 6.41798 6.23422 5.16389ZM1.87778 5.16389C3.83067 2.80325 6.084 1.4754 8.41244 1.4754C6.38444 1.4754 4.732 3.1721 4.732 5.16389C4.732 7.00814 6.15911 8.5573 7.96178 8.77861C5.78356 8.63107 3.75556 7.37698 1.87778 5.16389ZM9.01333 8.77861C10.816 8.48353 12.2431 7.00814 12.2431 5.16389C12.2431 3.1721 10.5907 1.54917 8.56267 1.4754C10.8911 1.4754 13.0693 2.72948 15.0973 5.16389C13.2196 7.37698 11.1164 8.63107 9.01333 8.77861Z" fill="#7E8186"/>
</svg>
