<svg width="20" height="22" viewBox="0 0 20 22" fill="none" xmlns="http://www.w3.org/2000/svg">
<path d="M2 18.7444C2 20.3377 3.3 21.5561 5 21.5561H15C16.7 21.5561 18 20.3377 18 18.7444V4.6861H20V2.81166H15V1.87444C15 0.843498 14.1 0 13 0H7C5.9 0 5 0.843498 5 1.87444V2.81166H0V4.6861H2V18.7444ZM7 1.87444H13V2.81166H7V1.87444ZM16 4.6861V18.7444C16 19.3067 15.6 19.6816 15 19.6816H5C4.4 19.6816 4 19.3067 4 18.7444V4.6861H16Z" fill="white"/>
<path d="M11 6.56054H9V17.8072H11V6.56054Z" fill="white"/>
<path d="M8 6.56054H6V17.8072H8V6.56054Z" fill="white"/>
<path d="M14 6.56054H12V17.8072H14V6.56054Z" fill="white"/>
</svg>
