<svg width="100" height="100" viewBox="0 0 100 100" fill="none" xmlns="http://www.w3.org/2000/svg">
<mask id="mask0" mask-type="alpha" maskUnits="userSpaceOnUse" x="0" y="0" width="100" height="100">
<circle cx="50" cy="50" r="50" fill="#C4C4C4"/>
</mask>
<g mask="url(#mask0)">
<path d="M114 -8.33331H-14V119.667H114V-8.33331Z" fill="#FF7F57"/>
<path d="M51.0655 75.1206C65.0761 75.1206 76.434 69.4809 76.434 62.5239C76.434 55.5668 65.0761 49.9271 51.0655 49.9271C37.0548 49.9271 25.697 55.5668 25.697 62.5239C25.697 69.4809 37.0548 75.1206 51.0655 75.1206Z" fill="#8C7369"/>
<path d="M58.8508 66.3292C58.5884 69.8283 58.9383 78.4448 59.9005 91.9601H41.574C42.2301 81.9439 42.8861 70.878 42.6237 66.3292H58.8508Z" fill="#F9DFA9"/>
<path d="M58.8509 66.3293C58.7635 70.7906 58.7635 74.1148 59.1134 79.2759C52.7275 78.0513 46.8228 73.8523 42.6238 68.6911V66.3293H58.8509Z" fill="#EACE95"/>
<path d="M71.4917 42.0102C71.4917 52.7699 57.1891 73.3709 50.6283 72.4524C42.9302 72.3212 29.9398 53.1198 29.9398 42.0102C29.9398 27.2702 36.0633 17.5164 50.7158 17.5164C66.2868 17.5164 71.4917 28.4949 71.4917 42.0102Z" fill="#FFE8B9"/>
<path d="M37.0256 45.9466C37.1569 49.7082 35.0574 52.8136 32.3893 52.9011C29.6775 52.9886 27.4906 48.396 27.4031 44.6345C27.2719 40.8729 29.2839 39.3858 31.9519 39.2983C34.62 39.2546 36.8944 42.1851 37.0256 45.9466Z" fill="#FFE8B9"/>
<path d="M64.4058 45.9466C64.2746 49.7082 66.374 52.8136 69.0421 52.9011C71.7539 52.9886 73.9409 48.396 74.0283 44.6345C74.1596 40.8729 72.1476 39.3858 69.4795 39.2983C66.8114 39.2546 64.537 42.1851 64.4058 45.9466Z" fill="#F9DFA9"/>
<path d="M71.4916 42.0102C71.4916 52.7699 57.1891 73.3709 50.6282 72.4524V17.5164C65.3682 17.5164 71.4916 27.2702 71.4916 42.0102Z" fill="#F9DFA9"/>
<path d="M42.5799 27.3142C47.085 38.0739 60.5565 37.2429 65.3678 39.4736C68.3858 48.5713 66.1551 64.186 62.0436 73.6336C66.505 73.2837 72.4097 72.3214 77.3522 67.4664C85.2252 52.8577 70.3988 39.4736 72.1962 31.039C75.2758 16.5871 49.7968 9.41167 42.5799 22.0522C36.6751 18.2032 34.1372 24.2554 30.8568 29.2416C29.9581 40.9245 14.8932 55.2633 26.2215 68.3412C28.4522 70.222 35.2317 73.1962 39.7368 73.6336C33.6571 64.7546 29.152 42.5353 42.5799 27.3142Z" fill="#AD8E83"/>
<path d="M83.4321 114.487H17.8239C17.8239 114.487 19.3985 91.7863 21.4542 88.9433C24.9971 84.0008 36.5441 80.1955 42.3177 78.8833C44.5046 83.7383 51.8527 83.3447 50.803 83.3447C50.803 83.3447 57.7137 82.6886 59.1571 78.8833C59.1571 78.8833 75.5154 83.5634 79.933 89.6868C81.945 92.5298 83.4321 114.487 83.4321 114.487Z" fill="#F9DFA9"/>
<path d="M76.4339 86.449C74.8593 93.0973 73.897 103.201 73.897 114.442H27.3589C27.3589 102.895 26.3092 92.5724 24.6909 85.9241C29.2834 82.7312 37.1564 79.9756 42.3176 78.8384C44.5483 83.7809 52.2026 83.2998 50.8029 83.2998C50.8029 83.2998 57.7137 82.6437 59.157 78.8384C63.8808 80.2381 71.7976 83.2123 76.4339 86.449Z" fill="#DB766C"/>
<path d="M76.4339 86.449C74.8593 93.0973 73.8971 103.201 73.8971 114.442H50.5405V83.2998C50.8467 83.2998 50.9779 83.2998 50.7592 83.2998C50.7592 83.2998 57.67 82.6437 59.1133 78.8384C59.1133 78.8384 70.048 81.9876 76.4339 86.449Z" fill="#D6736A"/>
<path d="M60.3378 79.2321C59.813 82.6875 55.6578 85.3555 50.6278 85.3555C45.5541 85.3555 41.3989 82.6437 40.9178 79.1883C41.4427 79.0571 41.88 78.9259 42.3174 78.8384C44.5481 83.7809 52.2024 83.2998 50.8028 83.2998C50.8028 83.2998 57.7135 82.6437 59.1569 78.8384C59.1131 78.8384 59.5943 78.9697 60.3378 79.2321Z" fill="#EB7E72"/>
<path d="M72.4663 40.9277C65.5802 41.4341 58.6435 41.991 51.7574 42.4974C51.6056 42.4974 51.4537 42.4974 51.2511 42.4467C51.0992 42.4467 50.9473 42.4467 50.7448 42.4974C43.8587 41.991 36.922 41.4341 30.0359 40.9277C29.4283 40.8771 28.9726 41.4341 29.0739 41.991C29.0739 42.0923 29.1245 42.1429 29.1245 42.2442C29.5802 44.0163 30.5929 45.586 31.96 46.7505C34.7448 49.1303 37.9347 51.7126 41.6815 52.4721C49.7321 54.1429 48.2638 48.6239 51.2005 48.6239C54.1372 48.6239 52.6688 54.1429 60.7195 52.4721C64.4663 51.7126 67.6056 49.1303 70.441 46.7505C71.8081 45.586 72.8208 44.0163 73.2765 42.2442C73.2765 42.1429 73.3271 42.0417 73.3271 41.991C73.5296 41.4341 73.0739 40.8771 72.4663 40.9277Z" fill="#292F33"/>
<path d="M46.4917 45.8899C46.6943 46.1431 46.6943 46.4975 46.593 46.8013C46.4917 47.1051 46.2386 47.3583 45.9854 47.5608C44.7702 48.6241 42.9981 48.9785 41.4284 48.4722C39.8588 48.0165 38.593 46.7 38.1879 45.1304C40.7196 44.4722 43.4538 44.6241 45.8841 45.4848C46.0867 45.5861 46.3398 45.6874 46.4917 45.8899Z" fill="#FFE8B9"/>
<path d="M56.0614 45.8899C55.8589 46.1431 55.8589 46.4975 55.9601 46.8013C56.0614 47.1051 56.3146 47.3583 56.5677 47.5608C57.7829 48.6241 59.5551 48.9785 61.1247 48.4722C62.6943 48.0165 63.9601 46.7 64.3652 45.1304C61.8336 44.4722 59.0994 44.6241 56.669 45.4848C56.4158 45.5861 56.2133 45.6874 56.0614 45.8899Z" fill="#FFE8B9"/>
<path d="M73.6342 40.7404C66.0421 39.8201 58.358 39.36 50.6279 39.36C42.9899 39.36 35.3058 39.8201 27.5757 40.7404C27.5757 37.1054 27.6217 32.7802 28.4499 28.6851C30.1984 20.1268 35.3518 12.2126 50.5819 12.1666H50.766C66.1802 12.1666 71.1495 20.0807 72.806 28.6851C73.6342 32.8262 73.6342 37.1054 73.6342 40.7404Z" fill="#323338"/>
<path d="M73.6343 40.7404C66.0422 39.8201 58.3582 39.36 50.6281 39.36V12.1666H50.8121C66.2263 12.1666 71.1956 20.0807 72.8521 28.6851C73.6343 32.8262 73.6343 37.1054 73.6343 40.7404Z" fill="#2F3033"/>
<path d="M73.9102 41.2004C73.9102 41.7985 73.358 42.2587 72.7599 42.1666C65.2598 41.2924 57.9438 40.8783 50.5358 40.8783C43.3119 40.8783 35.9959 41.3384 28.4498 42.1666C27.8517 42.2127 27.3455 41.7985 27.3455 41.2004C27.2995 37.9335 27.0694 34.2985 27.6216 30.7555C27.7136 30.2034 28.0817 29.7893 28.5879 29.6052C35.8578 27.3506 43.1738 26.2463 50.5358 26.2003C57.8978 26.2003 65.2598 27.3046 72.7139 29.5592C73.22 29.6973 73.6341 30.1574 73.6801 30.7095C74.2323 34.2985 73.9562 37.9335 73.9102 41.2004Z" fill="#2C2D30"/>
<path d="M73.9102 41.2004C73.9102 41.7985 73.3581 42.2587 72.7599 42.1666C65.2599 41.2924 57.9439 40.8783 50.5359 40.8783V26.2003C57.8979 26.2003 65.2599 27.3046 72.7139 29.5592C73.2201 29.6973 73.6342 30.1574 73.6802 30.7095C74.2323 34.2985 73.9563 37.9335 73.9102 41.2004Z" fill="#28292B"/>
<path d="M69.0258 31.9374L65.0429 41.2227L65.8066 41.5503L69.7895 32.265L69.0258 31.9374Z" fill="#49535D"/>
<path d="M70.3826 35.6779C69.9015 36.1591 67.8895 37.4275 67.4084 36.9464C66.9273 36.4652 68.1957 34.4533 68.6768 33.9721C69.7703 32.8349 71.4761 34.5407 70.3826 35.6779Z" fill="#DEE0E3"/>
<path d="M68.6768 39.9208C68.1957 39.4397 66.9273 37.4277 67.4084 36.9466C67.8895 36.4654 69.9015 37.7339 70.3826 38.215C71.4761 39.3522 69.7703 41.058 68.6768 39.9208Z" fill="#DEE0E3"/>
<path d="M64.4342 38.215C64.9153 37.7339 66.9273 36.4654 67.4084 36.9466C67.8895 37.4277 66.6211 39.4397 66.14 39.9208C65.0028 41.058 63.297 39.3522 64.4342 38.215Z" fill="#DEE0E3"/>
<path d="M66.14 33.9721C66.6211 34.4533 67.8895 36.4652 67.4084 36.9464C66.9273 37.4275 64.9153 36.1591 64.4342 35.6779C63.297 34.5407 65.0028 32.8349 66.14 33.9721Z" fill="#DEE0E3"/>
<path d="M68.5892 33.9285C68.5892 34.5846 68.0643 36.9465 67.3645 36.9465C66.7084 36.9465 66.1398 34.6283 66.1398 33.9285C66.1836 32.3539 68.5892 32.3539 68.5892 33.9285Z" fill="#ECEEF1"/>
<path d="M70.3828 38.1275C69.7267 38.1275 67.3648 37.6027 67.3648 36.9028C67.3648 36.2467 69.683 35.6781 70.3828 35.6781C72.0011 35.7219 72.0011 38.1275 70.3828 38.1275Z" fill="#ECEEF1"/>
<path d="M66.1838 39.9206C66.1838 39.2646 66.7086 36.9027 67.4085 36.9027C68.0645 36.9027 68.6332 39.2208 68.6332 39.9206C68.5894 41.539 66.1838 41.539 66.1838 39.9206Z" fill="#ECEEF1"/>
<path d="M64.3902 35.7218C65.0463 35.7218 67.4082 36.2467 67.4082 36.9465C67.4082 37.6026 65.09 38.1712 64.3902 38.1712C62.8156 38.1274 62.8156 35.7218 64.3902 35.7218Z" fill="#ECEEF1"/>
<path d="M67.4087 38.1274C65.8341 38.1274 65.8341 35.7218 67.4087 35.7218C68.9833 35.7218 68.9833 38.1274 67.4087 38.1274Z" fill="#FAD470"/>
</g>
</svg>
