<svg width="101" height="101" viewBox="0 0 101 101" fill="none" xmlns="http://www.w3.org/2000/svg">
<mask id="mask0" mask-type="alpha" maskUnits="userSpaceOnUse" x="0" y="0" width="101" height="101">
<circle cx="50.5" cy="50.5" r="50.5" fill="#C4C4C4"/>
</mask>
<g mask="url(#mask0)">
<path d="M109.268 -2.52499H-7.72235V114.465H109.268V-2.52499Z" fill="#FF7F57"/>
<path d="M29.1351 55.5849C34.2891 63.6177 25.8383 68.1681 19.895 75.6902C14.9731 81.9586 14.4624 93.4739 21.938 96.2134C40.2789 102.993 58.2019 105.778 78.7251 95.9812C85.4113 92.7774 84.7613 80.8906 78.2607 74.6222C72.2709 68.8646 67.8134 62.039 73.1531 54.7027C60.8021 43.466 29.1351 55.5849 29.1351 55.5849Z" fill="#292D33"/>
<path d="M59.3631 70.6757C59.0845 74.3903 59.456 83.4911 60.4775 97.8387H41.0687C41.7652 87.2521 42.4616 75.5046 42.183 70.6757H59.3631Z" fill="#F9DFA9"/>
<path d="M59.363 70.6757C59.2701 75.4118 59.2701 78.8942 59.6416 84.3733C52.8624 83.0732 46.594 78.6156 42.1829 73.183V70.6757H59.363Z" fill="#EACE95"/>
<path d="M72.782 44.9519C72.782 55.4921 58.8987 77.1761 50.773 77.1761C42.6473 77.1761 28.7639 56.7458 28.7639 44.9519C28.7639 30.6042 38.6076 18.9961 50.773 18.9961C62.9383 18.9961 72.782 30.6042 72.782 44.9519Z" fill="#FFE8B9"/>
<path d="M59.6415 100.485H41.9042V80.8444C41.9042 87.0664 59.5951 86.8342 59.6415 80.8444V100.485V100.485Z" fill="#E5EBEC"/>
<path d="M85.5043 121.705H16.0412C16.0412 121.705 17.7128 97.6528 19.8951 94.6347C23.6561 89.3878 35.8679 85.3482 41.997 83.9552C44.3186 89.1092 52.0729 88.6914 50.9585 88.6914C50.9585 88.6914 58.2484 87.9949 59.7807 83.9552C59.7807 83.9552 77.1465 88.9235 81.7897 95.3776C83.9721 98.4422 85.5043 121.705 85.5043 121.705Z" fill="#1BBB9C"/>
<path d="M85.5044 121.705H50.8657L50.9585 88.6914C50.9585 88.6914 56.7162 88.6914 59.7807 83.9552C59.7807 83.9552 77.1465 88.9235 81.7898 95.3776C83.9721 98.4422 85.5044 121.705 85.5044 121.705Z" fill="#19AD90"/>
<path d="M59.3163 74.5297C59.3163 75.8763 59.4556 80.8446 59.4556 80.8446C57.6911 83.9555 55.5552 85.4414 50.7262 85.4414C45.4329 85.4414 43.5292 83.9555 41.9969 80.8446C41.9969 80.8446 42.1826 75.8763 42.1826 74.5297C36.2393 74.5297 32.5711 80.9839 32.5711 85.8128C32.5711 100.486 36.0535 115.576 50.8655 115.576C65.2132 115.576 68.8814 100.486 68.8814 85.8128C68.9278 80.9839 65.2596 74.5297 59.3163 74.5297Z" fill="#14937B"/>
<path d="M42.1367 77.269C42.0902 77.1761 42.0438 77.1297 41.9974 77.0368C41.9974 77.0368 42.0438 75.9224 42.0902 74.5759C42.1367 74.5759 42.1367 74.5759 42.1831 74.5759C42.2295 75.0402 42.1831 76.1546 42.1367 77.269Z" fill="#14937B"/>
<path d="M59.3628 77.2225C59.3163 76.1081 59.3163 75.0866 59.3163 74.5759C59.3628 74.5759 59.3628 74.5759 59.4092 74.5759C59.4556 75.9224 59.5021 77.0368 59.5021 77.0368C59.4556 77.0832 59.4092 77.1297 59.3628 77.2225Z" fill="#14937B"/>
<path d="M68.9283 85.8127C68.9283 100.485 65.2601 115.576 50.9124 115.576C36.054 115.576 32.618 100.485 32.618 85.8127C32.618 85.4877 32.618 85.1626 32.6644 84.8376C33.1287 98.5352 37.0755 111.722 50.9124 111.722C64.3314 111.722 68.4175 98.5352 68.8818 84.8376C68.9283 85.1626 68.9283 85.4877 68.9283 85.8127Z" fill="#148C76"/>
<path d="M36.2395 49.1308C36.3788 53.124 34.15 56.4207 31.3176 56.5136C28.4853 56.56 26.1636 51.731 26.0243 47.7378C25.885 43.7446 28.0209 42.1659 30.8533 42.0731C33.6857 41.9802 36.1466 45.1376 36.2395 49.1308Z" fill="#FFE8B9"/>
<path d="M65.26 49.1309C65.1207 53.1241 67.3495 56.4209 70.1819 56.5137C73.0143 56.6066 75.3359 51.7312 75.4752 47.7844C75.6145 43.7912 73.4786 42.2125 70.6462 42.1196C67.8138 41.9803 65.3993 45.1377 65.26 49.1309Z" fill="#F9DFA9"/>
<path d="M72.7819 44.9519C72.7819 55.4921 58.8986 77.1761 50.7729 77.1761V18.9961C62.9382 18.9961 72.7819 30.6042 72.7819 44.9519Z" fill="#F9DFA9"/>
<path d="M50.3088 15.0959C39.9079 15.0959 25.5138 23.3144 26.2103 39.1944C26.3031 40.8659 26.4424 42.0732 26.721 44.2555C27.6497 43.1876 27.9747 42.909 28.8105 42.4911C30.8535 42.1196 31.4107 43.8841 31.1321 44.9984C31.8286 45.0913 31.8286 45.0913 32.5715 44.9984C41.4402 43.9769 47.5228 39.1944 50.7267 31.4401C52.1661 38.8693 58.4345 43.559 69.439 44.7663C70.089 44.8591 69.3461 44.8127 70.3676 44.8591C69.9497 43.9769 71.0177 42.3054 71.8999 42.3054C73.2929 42.3054 73.8501 43.0947 74.6859 44.1627C74.6859 44.1627 75.3359 42.9554 75.4752 40.0766C76.4503 23.0358 63.0313 15.0959 50.3088 15.0959Z" fill="#292D33"/>
<path d="M72.4929 43.1777C65.2773 43.7083 58.0087 44.2919 50.7931 44.8224C50.6339 44.8224 50.4748 44.8224 50.2626 44.7694C50.1034 44.7694 49.9442 44.7694 49.732 44.8224C42.5164 44.2919 35.2478 43.7083 28.0322 43.1777C27.3955 43.1247 26.918 43.7083 27.0241 44.2919C27.0241 44.398 27.0772 44.451 27.0772 44.5572C27.5547 46.4141 28.6158 48.0588 30.0483 49.2791C32.9664 51.7727 36.3089 54.4786 40.235 55.2744C48.6709 57.0253 47.1323 51.2422 50.2095 51.2422C53.2867 51.2422 51.7481 57.0253 60.184 55.2744C64.1101 54.4786 67.3996 51.7727 70.3707 49.2791C71.8032 48.0588 72.8643 46.4141 73.3418 44.5572C73.3418 44.451 73.3949 44.3449 73.3949 44.2919C73.6071 43.7083 73.1296 43.1247 72.4929 43.1777Z" fill="#292F33"/>
<path d="M45.2757 48.3772C45.488 48.6425 45.488 49.0139 45.3818 49.3322C45.2757 49.6505 45.0105 49.9158 44.7452 50.128C43.4718 51.2422 41.6149 51.6136 39.9702 51.083C38.3254 50.6055 36.999 49.2261 36.5746 47.5814C39.2274 46.8916 42.0924 47.0508 44.6391 47.9528C44.8513 48.0589 45.1166 48.165 45.2757 48.3772Z" fill="#FFE8B9"/>
<path d="M55.3029 48.3772C55.0907 48.6425 55.0907 49.0139 55.1968 49.3322C55.3029 49.6505 55.5682 49.9158 55.8335 50.128C57.1068 51.2422 58.9638 51.6136 60.6085 51.083C62.2532 50.6055 63.5796 49.2261 64.0041 47.5814C61.3513 46.8916 58.4863 47.0508 55.9396 47.9528C55.6743 48.0589 55.4621 48.165 55.3029 48.3772Z" fill="#FFE8B9"/>
<path d="M74.171 42.9872C66.4496 42.0513 58.6347 41.5833 50.7729 41.5833C43.0048 41.5833 35.1898 42.0513 27.3281 42.9872C27.3281 39.2903 27.3749 34.8915 28.2172 30.7266C29.9954 22.0225 35.2366 13.9736 50.7261 13.9268H50.9133C66.59 13.9268 71.644 21.9757 73.3287 30.7266C74.171 34.9383 74.171 39.2903 74.171 42.9872Z" fill="#323338"/>
<path d="M74.1705 42.9872C66.4492 42.0513 58.6342 41.5833 50.7725 41.5833V13.9268H50.9596C66.6363 13.9268 71.6903 21.9757 73.375 30.7266C74.1705 34.9383 74.1705 39.2903 74.1705 42.9872Z" fill="#2F3033"/>
<path d="M74.4515 43.4551C74.4515 44.0634 73.8899 44.5314 73.2815 44.4378C65.6538 43.5487 58.2132 43.1275 50.679 43.1275C43.332 43.1275 35.8914 43.5955 28.2169 44.4378C27.6085 44.4846 27.0938 44.0634 27.0938 43.4551C27.047 40.1326 26.813 36.4357 27.3745 32.8324C27.4681 32.2708 27.8425 31.8496 28.3573 31.6625C35.751 29.3694 43.1916 28.2463 50.679 28.1995C58.1664 28.1995 65.6538 29.3226 73.2347 31.6157C73.7495 31.756 74.1707 32.224 74.2175 32.7856C74.779 36.4357 74.4982 40.1326 74.4515 43.4551Z" fill="#2C2D30"/>
<path d="M74.4512 43.4551C74.4512 44.0634 73.8897 44.5314 73.2813 44.4378C65.6535 43.5487 58.2129 43.1275 50.6788 43.1275V28.1995C58.1662 28.1995 65.6535 29.3226 73.2345 31.6157C73.7493 31.756 74.1704 32.224 74.2172 32.7856C74.7788 36.4357 74.498 40.1326 74.4512 43.4551Z" fill="#28292B"/>
</g>
</svg>
