<svg width="100" height="100" viewBox="0 0 100 100" fill="none" xmlns="http://www.w3.org/2000/svg">
<mask id="mask0" mask-type="alpha" maskUnits="userSpaceOnUse" x="0" y="0" width="100" height="100">
<circle cx="50" cy="50" r="50" fill="#C4C4C4"/>
</mask>
<g mask="url(#mask0)">
<path d="M119 -12.386H-18.9998V125.614H119V-12.386Z" fill="#FF7F57"/>
<path d="M60.0103 72.2991H40.9294V96.6102H60.0103V72.2991Z" fill="#F9DFA9"/>
<path d="M59.9618 72.2991V83.4376C52.5038 82.1785 45.8207 78.4011 40.9294 73.074V72.2991H59.9618Z" fill="#EACE95"/>
<path d="M72.069 44.6949C72.069 58.7876 62.3833 76.3187 50.4699 76.3187C38.5565 76.3187 28.8708 58.7391 28.8708 44.6949C28.8708 43.6295 28.8708 42.6125 28.9676 41.5955C29.5488 29.0041 34.5853 19.2215 50.4214 19.2215C66.2091 19.2215 71.2457 28.9072 71.9237 41.4018C72.0205 42.5156 72.069 43.581 72.069 44.6949Z" fill="#FFE8B9"/>
<path d="M72.0689 44.6949C72.0689 58.7876 62.3832 76.3187 50.4698 76.3187V19.2215C67.5651 19.2215 72.0689 30.6506 72.0689 44.6949Z" fill="#F9DFA9"/>
<path d="M35.3601 48.9566C35.3601 53.2667 33.084 56.7536 30.2752 56.7536C27.4663 56.7536 25.3354 51.4265 25.3354 47.0679C25.3354 42.7578 27.4663 41.1112 30.2752 41.1112C33.1324 41.1596 35.3601 44.6465 35.3601 48.9566Z" fill="#FFE8B9"/>
<path d="M65.4826 48.9566C65.4826 53.2667 67.7587 56.7536 70.5676 56.7536C73.3764 56.7536 75.5073 51.4265 75.5073 47.0679C75.5073 42.7578 73.3764 41.1112 70.5676 41.1112C67.7587 41.1112 65.4826 44.6465 65.4826 48.9566Z" fill="#F9DFA9"/>
<path d="M89.8906 120.05H10.9522C10.9522 120.05 13.5189 96.7555 15.9403 93.8013C21.1222 87.4572 40.9294 83.0502 40.9294 83.0502C45.7238 84.3578 45.7238 84.3578 50.4698 84.3578C55.2158 84.3578 55.2158 84.3578 60.0102 83.0502C60.0102 83.0502 79.769 87.4572 84.9509 93.8013C87.3723 96.7555 89.8906 120.05 89.8906 120.05Z" fill="#DBE0E2"/>
<path d="M89.8906 120.05H50.4214V84.3094C55.1674 84.3094 55.5548 84.4547 59.9618 83.0018C59.9618 83.0018 79.7206 87.1182 84.9024 93.4623C87.3723 96.4649 89.8906 120.05 89.8906 120.05Z" fill="#CBD0D3"/>
<path d="M59.9618 116.95H40.9294V79.6602C40.9294 85.7622 59.9618 85.5201 60.0103 79.6602V116.95H59.9618Z" fill="#49535D"/>
<path d="M40.2998 72.0085C40.2998 72.0085 36.2803 72.8803 33.2777 74.5268C27.7569 77.5294 25.3839 83.0502 25.3839 83.0502C25.3839 83.0502 34.6821 79.515 38.3627 80.9194C39.9608 81.5489 40.0577 81.7427 39.6218 81.7911C36.9583 82.0332 34.3916 82.8081 31.8733 83.6798L25.3839 85.9559C25.3839 85.9559 23.3015 93.2202 30.033 105.666C36.9099 118.355 50.4214 127.023 50.4214 127.023V116.224C50.4214 116.224 45.8691 106.344 44.1257 99.0316C39.9124 81.3068 41.0747 72.6865 41.0747 72.6865L40.2998 72.0085Z" fill="#ECF0F1"/>
<path d="M60.5431 72.0085C60.5431 72.0085 64.5626 72.8803 67.5652 74.5268C73.086 77.5294 75.459 83.0502 75.459 83.0502C75.459 83.0502 66.1608 79.515 62.4802 80.9194C60.8821 81.5489 60.7852 81.7427 61.2211 81.7911C63.2066 81.9848 65.1438 82.3238 67.0325 83.0018L75.459 86.0044C75.459 86.0044 77.5414 93.2686 70.8099 105.715C63.933 118.403 50.4215 127.072 50.4215 127.072V116.272C50.4215 116.272 54.9738 106.393 56.7172 99.08C60.9305 81.3552 59.7682 72.735 59.7682 72.735L60.5431 72.0085Z" fill="#E6EAEB"/>
<path d="M70.7129 35.5904C69.7444 18.6404 50.373 15.7347 37.7816 20.0933C35.3602 21.0618 32.9387 23.4832 31.0016 24.9361C27.2242 28.2292 27.321 33.1205 26.7883 38.3024C28.0959 39.7552 27.9506 40.8206 28.5318 41.1596C28.7255 41.2565 28.8223 41.3533 28.8223 41.3533C29.8878 45.2276 30.4689 49.2472 30.4689 53.2667C30.4689 54.2837 30.4689 55.3007 30.9047 56.2209C31.3406 57.141 32.3576 57.819 33.3262 57.5284C32.7935 51.8139 32.3092 46.0993 31.7765 40.3848C31.4859 36.9464 33.084 33.7016 35.1665 30.9412C37.2489 28.1808 40.2999 26.1468 43.6414 25.2267C44.8037 24.8877 46.0629 24.7424 47.2736 24.9845C48.4843 25.2267 49.6466 25.9047 50.1793 26.9701C53.1334 24.7908 57.6372 24.5971 60.882 26.1952C63.4002 27.4059 65.2889 29.6821 66.4997 32.2004C67.7104 34.7186 68.2431 37.4791 68.5337 40.2879C69.1632 46.0509 68.2915 52.2013 66.1607 57.5769C66.5481 58.0612 67.3714 58.4002 67.9525 58.3033C68.5337 58.2064 69.1148 57.819 69.3569 57.2379C71.5846 52.0076 72.5532 47.0679 72.1174 41.4018C72.2142 41.4018 72.3111 41.4502 72.4079 41.4502C73.2312 41.4986 71.6815 40.6269 72.7954 39.6099C70.5192 39.1256 70.9551 37.9149 70.7129 35.5904Z" fill="#D9C3A7"/>
<path d="M26.7883 30.4085C26.7883 30.6506 26.8368 30.8928 26.8368 31.1833C26.9336 30.9896 26.982 30.7959 27.0789 30.6022C26.982 30.5054 26.8852 30.4569 26.7883 30.4085Z" fill="#9C8276"/>
<path d="M73.0859 38.9803C73.1828 39.0288 73.2796 39.0772 73.3765 39.1256C73.4734 39.0772 73.6187 38.9803 73.7155 38.9319C73.4734 38.9803 73.2797 38.9803 73.0859 38.9803Z" fill="#9C8276"/>
<path d="M72.7469 39.0295C72.7954 38.9811 72.7954 38.9326 72.8438 38.8842C71.6815 38.1093 70.8582 36.9955 70.713 35.6395C69.7444 18.6895 50.373 15.7838 37.7816 20.1424C35.3602 21.111 32.9388 23.5324 31.0016 24.9852C29.5003 26.3412 28.3381 27.9394 27.4663 29.7796C27.5632 30.1671 27.7085 30.5061 27.8538 30.8935C27.6116 30.6998 27.3695 30.6998 27.1274 30.6029C27.0305 30.7966 26.9821 30.9904 26.8852 31.1841C27.0305 32.7822 27.1758 34.3803 27.2726 36.0269C26.8852 35.8332 26.4978 35.6879 26.1104 35.4942C27.3211 37.2376 28.1443 39.1748 28.5802 41.2572C28.7739 41.354 28.8708 41.4509 28.8708 41.4509C29.9362 45.3252 30.5173 49.3447 30.5173 53.3643C30.5173 54.3813 30.5173 55.3983 30.9532 56.3184C31.3891 57.2386 32.406 57.9166 33.3746 57.626C32.8419 51.9114 32.3576 46.1969 31.8249 40.4823C31.5343 37.0439 33.1325 33.7992 35.2149 31.0388C37.2973 28.2784 40.3483 26.2444 43.6899 25.3242C44.8522 24.9852 46.1113 24.8399 47.322 25.0821C48.5327 25.3242 49.695 26.0022 50.2277 27.0677C53.1819 24.8884 57.6857 24.6947 60.9304 26.2928C63.4487 27.5035 65.3374 29.7796 66.5481 32.2979C67.7588 34.8162 68.2915 37.5766 68.5821 40.3855C69.2117 46.1485 68.34 52.2989 66.2091 57.6744C66.5965 58.1587 67.4198 58.4977 68.001 58.4009C68.5821 58.304 69.1632 57.9166 69.4054 57.3354C71.6331 52.1052 72.6017 47.1655 72.1658 41.4993C72.2627 41.4993 72.3595 41.5478 72.4564 41.5478C72.3595 40.676 72.6017 39.7075 73.3281 39.2232C73.2312 39.1748 73.1344 39.1263 73.0375 39.0779C72.9407 38.9811 72.8438 38.9811 72.7469 39.0295Z" fill="#9C8276"/>
<path d="M70.6645 41.4502C64.0783 41.9345 57.4436 42.4672 50.8573 42.9515C50.712 42.9515 50.5667 42.9515 50.373 42.903C50.2277 42.903 50.0824 42.903 49.8887 42.9515C43.3024 42.4672 36.6678 41.9345 30.0815 41.4502C29.5003 41.4018 29.0645 41.9345 29.1613 42.4672C29.1613 42.564 29.2098 42.6125 29.2098 42.7093C29.6456 44.4043 30.6142 45.9056 31.9218 47.0195C34.5853 49.2956 37.6363 51.7654 41.22 52.4919C48.9201 54.09 47.5157 48.8113 50.3246 48.8113C53.1334 48.8113 51.729 54.09 59.4291 52.4919C63.0128 51.7654 66.0154 49.2956 68.7274 47.0195C70.035 45.9056 71.0035 44.4043 71.4394 42.7093C71.4394 42.6125 71.4878 42.5156 71.4878 42.4672C71.6815 41.9345 71.2457 41.4018 70.6645 41.4502Z" fill="#292F33"/>
<path d="M45.8207 46.1962C46.0145 46.4383 46.0145 46.7773 45.9176 47.0679C45.8207 47.3585 45.5786 47.6006 45.3365 47.7943C44.1742 48.8113 42.4792 49.1503 40.9779 48.666C39.4766 48.2302 38.2659 46.971 37.8785 45.4698C40.2999 44.8402 42.915 44.9855 45.2396 45.8088C45.4333 45.9056 45.6755 46.0025 45.8207 46.1962Z" fill="#FFE8B9"/>
<path d="M54.9737 46.1962C54.7799 46.4383 54.7799 46.7773 54.8768 47.0679C54.9736 47.3585 55.2158 47.6006 55.4579 47.7943C56.6202 48.8113 58.3152 49.1503 59.8165 48.666C61.3178 48.2302 62.5285 46.971 62.9159 45.4698C60.4945 44.8402 57.8794 44.9855 55.5548 45.8088C55.3126 45.9056 55.1189 46.0025 54.9737 46.1962Z" fill="#FFE8B9"/>
<path d="M74.8292 39.6099C66.8385 38.6413 58.751 38.157 50.615 38.157C42.5759 38.157 34.4883 38.6413 26.3524 39.6099C26.3524 35.784 26.4008 31.2318 27.2725 26.9216C29.1128 17.9139 34.5368 9.58426 50.615 9.53583H50.8087C67.0323 9.53583 72.2625 17.8655 74.0059 26.9216C74.8292 31.2802 74.8292 35.784 74.8292 39.6099Z" fill="#323338"/>
<path d="M74.8292 39.6099C66.8385 38.6413 58.751 38.157 50.615 38.157V9.53583H50.8087C67.0322 9.53583 72.2625 17.8655 74.0059 26.9216C74.8292 31.2802 74.8292 35.784 74.8292 39.6099Z" fill="#2F3033"/>
<path d="M75.1197 40.0942C75.1197 40.7238 74.5386 41.208 73.909 41.1112C66.0152 40.191 58.3151 39.7552 50.5181 39.7552C42.9148 39.7552 35.2147 40.2395 27.2724 41.1112C26.6429 41.1596 26.1101 40.7238 26.1101 40.0942C26.0617 36.6558 25.8196 32.8299 26.4007 29.1009C26.4976 28.5198 26.885 28.0839 27.4177 27.8902C35.0694 25.5172 42.7695 24.3549 50.5181 24.3065C58.2666 24.3065 66.0152 25.4688 73.8606 27.8418C74.3933 27.9871 74.8292 28.4714 74.8776 29.0525C75.4587 32.8784 75.1682 36.7042 75.1197 40.0942Z" fill="#2C2D30"/>
<path d="M75.1198 40.0942C75.1198 40.7238 74.5386 41.208 73.9091 41.1112C66.0152 40.191 58.3151 39.7552 50.5181 39.7552V24.3065C58.2667 24.3065 66.0152 25.4688 73.8606 27.8418C74.3933 27.9871 74.8292 28.4714 74.8776 29.0525C75.4588 32.8784 75.1682 36.7042 75.1198 40.0942Z" fill="#28292B"/>
<path d="M120 -13.4H-19.9999V126.6H120V-13.4Z" fill="#FF7F57"/>
<path d="M59.4241 70.5396H40.5755V94.6064H59.4241V70.5396Z" fill="#F9DFA9"/>
<path d="M59.4241 70.5396V81.5503C52.041 80.2882 45.4831 76.5889 40.5755 71.2794V70.5396H59.4241V70.5396Z" fill="#EACE95"/>
<path d="M71.3238 43.2522C71.3238 57.1788 61.7692 74.5435 49.9563 74.5435C38.1867 74.5435 28.5887 57.1788 28.5887 43.2522C28.5887 29.3257 32.2802 18.0539 49.9563 18.0539C67.6323 18.0103 71.3238 29.3257 71.3238 43.2522Z" fill="#FFE8B9"/>
<path d="M71.3241 43.2522C71.3241 57.1788 61.7694 74.5435 49.9565 74.5435V18.0103C67.6325 18.0103 71.3241 29.3257 71.3241 43.2522Z" fill="#F9DFA9"/>
<path d="M35.1468 47.4737C35.1468 51.7387 32.8884 55.2204 30.1523 55.2204C27.3728 55.2204 25.2881 49.9109 25.2881 45.6459C25.2447 41.3809 27.3294 39.7271 30.1089 39.7271C32.8884 39.7271 35.1468 43.2087 35.1468 47.4737Z" fill="#FFE8B9"/>
<path d="M64.8528 47.4737C64.8528 51.7388 67.1112 55.2204 69.8473 55.2204C72.6268 55.2204 74.7115 49.9109 74.7115 45.6459C74.7115 41.3809 72.6268 39.7706 69.8473 39.7706C67.1112 39.7271 64.8528 43.2087 64.8528 47.4737Z" fill="#F9DFA9"/>
<path d="M35.1468 22.667C35.1468 22.667 34.3217 21.492 33.0622 21.3179C31.8027 21.1438 27.6769 26.1487 27.0254 31.197C26.374 36.2454 26.7214 41.0762 26.7214 41.0762L28.7192 39.9882C28.7192 39.9882 29.4141 39.9011 29.6746 41.642C29.8918 43.3828 30.1958 48.9969 30.1958 48.9969H31.7593C31.7593 48.9969 33.3228 40.1623 33.0622 38.639C32.845 37.1593 31.7593 34.9398 32.4107 32.111C33.0622 29.2386 35.1468 22.667 35.1468 22.667Z" fill="#F9FBFB"/>
<path d="M64.853 22.667C64.853 22.667 65.6781 21.492 66.9376 21.3179C68.1971 21.1438 72.3229 26.1487 72.9744 31.197C73.6258 36.2019 73.2784 41.0762 73.2784 41.0762L71.2806 39.9882C71.2806 39.9882 70.5857 39.9011 70.3686 41.642C70.1514 43.3828 69.8474 48.9969 69.8474 48.9969H68.2839C68.2839 48.9969 66.7205 40.1623 66.981 38.639C67.1982 37.1593 68.2839 34.9398 67.6325 32.111C66.9376 29.2386 64.853 22.667 64.853 22.667Z" fill="#F9FBFB"/>
<path d="M59.5109 74.0212V91.2118H40.4886V74.0212C40.4886 76.5454 42.8338 78.1992 45.8739 78.939C47.1768 79.2437 48.5666 79.4178 49.9998 79.4178C51.3895 79.4178 52.8227 79.2437 54.1256 78.939C57.1657 78.1992 59.5109 76.5889 59.5109 74.0212Z" fill="#ECF0F1"/>
<path d="M59.5109 74.9787V92.1693H40.4886V74.9787C40.4886 77.5028 42.8338 79.1566 45.8739 79.8965C47.1768 80.2011 48.5666 80.3752 49.9998 80.3752C51.3895 80.3752 52.8227 80.2011 54.1256 79.8965C57.1657 79.1131 59.5109 77.5028 59.5109 74.9787Z" fill="#2C3036"/>
<path d="M59.5109 74.9787V92.1693H49.9998V80.3752C51.3895 80.3752 52.8227 80.2011 54.1256 79.8965C57.1657 79.1131 59.5109 77.5028 59.5109 74.9787Z" fill="#26292E"/>
<path d="M53.0398 84.0745C53.0398 85.3366 46.9161 85.3366 46.9161 84.0745V79.6354H53.0398V84.0745Z" fill="#ECF0F1"/>
<path d="M89 117.803H10.9996C10.9996 117.803 13.5186 94.4759 15.9072 91.5165C21.032 85.2495 40.5755 81.1586 40.5755 81.1586C40.6623 86.294 45.3094 88.9052 49.9998 88.9052C54.6468 88.9052 59.3373 86.3375 59.4241 81.1586C59.4241 81.1586 78.9676 85.2495 84.0924 91.5165C86.481 94.4759 89 117.803 89 117.803Z" fill="#32363D"/>
<path d="M88.9999 117.803H49.9998V88.9052C54.6468 88.9052 59.3372 86.3375 59.4241 81.1586C59.4241 81.1586 78.9676 85.2495 84.0923 91.5164C86.481 94.4758 88.9999 117.803 88.9999 117.803Z" fill="#2C3036"/>
<path d="M37.275 84.5531C37.0144 84.5096 36.7972 84.292 36.667 84.0309C36.5367 83.7263 36.5367 83.3346 36.6235 82.9429C36.8407 82.116 37.4487 81.6373 37.9264 81.8114C38.4476 81.9855 38.6647 82.6818 38.4476 83.4216C38.3607 83.7698 38.187 84.0744 37.9699 84.292C37.7527 84.4661 37.5356 84.5967 37.275 84.5531Z" fill="#876D65"/>
<path d="M37.0577 87.4255C36.4931 87.4255 36.1023 86.7727 36.1457 85.9458C36.1457 85.5106 36.3628 85.1625 36.5366 84.9013C36.7537 84.6402 37.0143 84.5532 37.2749 84.5967C37.796 84.6837 38.1 85.3365 38.0566 86.0764C38.0132 86.7727 37.5354 87.382 37.0577 87.4255Z" fill="#876D65"/>
<path d="M37.4053 90.2544C36.8841 90.3849 36.3195 89.7756 36.2327 88.9487C36.1892 88.1218 36.5367 87.4255 37.0578 87.4255C37.579 87.4255 38.0567 87.9913 38.1002 88.7311C38.187 89.471 37.9264 90.1238 37.4053 90.2544Z" fill="#876D65"/>
<path d="M38.1434 92.9961C37.6223 93.1702 37.0577 92.6915 36.7971 91.9081C36.5365 91.1248 36.8405 90.3414 37.3617 90.2543C37.8828 90.1673 38.3606 90.6896 38.6211 91.3859C38.8817 92.0822 38.6211 92.8221 38.1434 92.9961Z" fill="#876D65"/>
<path d="M39.3161 95.6074C39.0989 95.7379 38.7949 95.6944 38.4909 95.5203C38.2303 95.3463 37.9697 95.0416 37.8394 94.6935C37.5354 93.9101 37.6657 93.1702 38.1435 92.9961C38.6212 92.8221 39.2726 93.2573 39.5766 93.9536C39.7069 94.3018 39.7504 94.6499 39.7069 94.9546C39.6635 95.2592 39.5332 95.4768 39.3161 95.6074Z" fill="#876D65"/>
<path d="M40.836 98.001C40.4452 98.3491 39.6634 98.088 39.2291 97.3482C39.0988 97.1741 39.012 97 38.9685 96.8259C38.9251 96.6519 38.9251 96.4778 38.9251 96.3037C38.9685 95.999 39.0988 95.7379 39.316 95.6074C39.5331 95.4768 39.8371 95.5203 40.0977 95.6509C40.228 95.7379 40.3583 95.825 40.4886 95.912C40.6189 96.0426 40.7492 96.1731 40.836 96.3037C41.2269 96.9565 41.2703 97.6963 40.836 98.001Z" fill="#876D65"/>
<path d="M42.7904 100.133C42.6167 100.308 42.3127 100.395 42.0087 100.308C41.835 100.264 41.7047 100.221 41.531 100.133C41.3573 100.046 41.227 99.9159 41.0967 99.7418C40.5321 99.1325 40.4452 98.3056 40.8795 98.001C41.3138 97.6963 42.0087 97.9139 42.4864 98.4362C42.6167 98.5667 42.7036 98.7408 42.7904 98.8714C42.8773 99.002 42.9207 99.176 42.9642 99.3066C43.0076 99.6548 42.9642 99.9159 42.7904 100.133Z" fill="#876D65"/>
<path d="M44.9619 101.918C44.6579 102.353 43.8762 102.31 43.2247 101.787C42.9207 101.526 42.7036 101.178 42.6167 100.873C42.5299 100.569 42.5733 100.264 42.747 100.09C42.9207 99.9159 43.2248 99.8289 43.4853 99.8724C43.7893 99.9159 44.1368 100.046 44.3974 100.308C45.0488 100.786 45.266 101.483 44.9619 101.918Z" fill="#876D65"/>
<path d="M62.7681 84.5532C62.5076 84.5967 62.247 84.4661 62.0298 84.2485C61.8127 84.0309 61.639 83.7263 61.5521 83.3781C61.3784 82.6383 61.5955 81.9419 62.0733 81.7678C62.551 81.5938 63.159 82.116 63.3762 82.8994C63.463 83.2911 63.463 83.6827 63.3327 83.9874C63.2459 84.292 62.9853 84.5096 62.7681 84.5532Z" fill="#876D65"/>
<path d="M62.9418 87.4255C62.4207 87.4255 61.9864 86.8162 61.9429 86.0764C61.8995 85.3365 62.2035 84.6837 62.7247 84.5967C62.9853 84.5532 63.2459 84.6837 63.463 84.9013C63.6802 85.1625 63.8539 85.5106 63.8539 85.9458C63.8973 86.7727 63.5064 87.4255 62.9418 87.4255Z" fill="#876D65"/>
<path d="M62.6379 90.2543C62.1168 90.1238 61.8562 89.471 61.943 88.7311C61.9865 87.9913 62.4642 87.4255 62.9854 87.4255C63.5065 87.4255 63.8974 88.1218 63.8105 88.9487C63.6802 89.7756 63.1156 90.3414 62.6379 90.2543Z" fill="#876D65"/>
<path d="M61.8562 92.9961C61.3785 92.8221 61.1614 92.0822 61.3785 91.3859C61.6391 90.6896 62.1168 90.1673 62.638 90.2543C63.1591 90.3414 63.4632 91.1248 63.2026 91.9081C62.942 92.6915 62.3774 93.1702 61.8562 92.9961Z" fill="#876D65"/>
<path d="M60.6835 95.6074C60.4663 95.4768 60.2926 95.2157 60.2926 94.9546C60.2492 94.6499 60.2926 94.3018 60.4229 93.9536C60.7269 93.2573 61.3783 92.8221 61.8561 92.9961C62.3338 93.1702 62.5075 93.9536 62.1601 94.6935C61.9864 95.0851 61.7692 95.3898 61.5086 95.5203C61.2046 95.6944 60.944 95.7379 60.6835 95.6074Z" fill="#876D65"/>
<path d="M59.1636 98.001C58.7727 97.6528 58.8161 96.9565 59.207 96.3037C59.2939 96.1296 59.4242 95.9991 59.5544 95.912C59.6847 95.7815 59.815 95.6944 59.9453 95.6509C60.2059 95.5203 60.5099 95.4768 60.7271 95.6074C60.9442 95.7379 61.0745 95.999 61.1179 96.3037C61.1179 96.4778 61.1179 96.6519 61.0745 96.8259C61.0311 97 60.9442 97.1741 60.8139 97.3482C60.3362 98.088 59.5544 98.3491 59.1636 98.001Z" fill="#876D65"/>
<path d="M57.2527 100.134C57.079 99.9594 57.0355 99.6548 57.079 99.3501C57.1224 99.2196 57.1658 99.0455 57.2527 98.9149C57.3395 98.7409 57.4264 98.6103 57.5567 98.4797C58.0778 97.9575 58.7727 97.6964 59.1636 98.0445C59.5979 98.3492 59.511 99.1761 58.9464 99.7853C58.8162 99.9594 58.6424 100.046 58.5121 100.177C58.3384 100.264 58.1647 100.308 58.0344 100.351C57.687 100.395 57.4264 100.308 57.2527 100.134Z" fill="#876D65"/>
<path d="M55.0375 101.918C54.7335 101.483 54.9941 100.786 55.5587 100.308C55.8627 100.046 56.1667 99.9159 56.4707 99.8724C56.7747 99.8288 57.0353 99.8724 57.209 100.09C57.3827 100.264 57.4261 100.569 57.3393 100.873C57.2524 101.178 57.0353 101.483 56.7313 101.787C56.1233 102.31 55.3415 102.353 55.0375 101.918Z" fill="#876D65"/>
<path d="M69.4565 42.5559C63.0289 43.0346 56.6013 43.5569 50.217 44.0356C50.0868 44.0356 49.913 43.9921 49.7393 43.9921C49.609 43.9921 49.4353 44.0356 49.305 44.0356C42.8774 43.5569 36.4497 43.0346 30.0655 42.5559C29.5009 42.5124 29.0666 43.0346 29.1969 43.5569C29.1969 43.6439 29.2403 43.731 29.2403 43.818C29.6746 45.4718 30.5867 46.9515 31.8896 48.0395C34.4954 50.259 37.4486 52.6527 40.923 53.3925C48.4364 54.9157 47.0467 49.8238 49.7827 49.8238C52.5188 49.8238 51.1725 54.9593 58.6425 53.3925C62.1169 52.6962 65.0701 50.259 67.6759 48.0395C68.9788 46.9515 69.8908 45.4718 70.3251 43.818C70.3686 43.731 70.3686 43.6439 70.3686 43.5569C70.4989 42.9911 70.0211 42.5124 69.4565 42.5559Z" fill="#292F33"/>
<path d="M45.3094 47.1691C45.4832 47.3867 45.5266 47.7349 45.3963 48.0395C45.266 48.3006 45.0923 48.5618 44.8317 48.7359C43.7025 49.6933 42.0522 50.0415 40.5756 49.6063C39.1424 49.1711 37.9698 47.9525 37.5355 46.5163C39.8807 45.907 42.3996 46.0376 44.7014 46.8645C44.962 46.908 45.1791 46.995 45.3094 47.1691Z" fill="#FFE8B9"/>
<path d="M54.2124 47.1691C54.0387 47.3867 53.9953 47.7349 54.1256 48.0395C54.2559 48.3006 54.473 48.5618 54.6901 48.7359C55.8193 49.6933 57.5131 50.0415 58.9463 49.6063C60.3795 49.1711 61.5521 47.9525 61.9864 46.5163C59.6412 45.907 57.1222 46.0376 54.8204 46.8645C54.5599 46.908 54.3427 46.995 54.2124 47.1691Z" fill="#FFE8B9"/>
<path d="M73.539 40.7716C65.765 39.8141 57.9042 39.3354 49.9999 39.3354C42.1825 39.3354 34.3217 39.8141 26.4174 40.7716C26.4174 37.0288 26.4608 32.6332 27.3294 28.3682C29.1101 19.5771 34.3651 11.5258 49.9999 11.4388H50.2171C65.9822 11.4388 71.1069 19.5336 72.7573 28.3682C73.539 32.6332 73.539 37.0288 73.539 40.7716Z" fill="#323338"/>
<path d="M73.5389 40.7716C65.7649 39.8141 57.9041 39.3354 49.9998 39.3354V11.4388H50.217C65.9821 11.4388 71.1068 19.5336 72.7571 28.3682C73.5389 32.6332 73.5389 37.0288 73.5389 40.7716Z" fill="#2F3033"/>
<path d="M73.7995 41.2068C73.7995 41.8161 73.2349 42.2948 72.6268 42.2077C64.9397 41.2938 57.4263 40.8586 49.8695 40.9021C42.443 40.9021 34.973 41.3809 27.2424 42.2513C26.6344 42.3383 26.1133 41.8596 26.1133 41.2503C26.0698 37.9427 25.8092 34.1565 26.4173 30.5007C26.5041 29.935 26.895 29.4998 27.4162 29.3257C34.8427 27.0191 42.3561 25.844 49.8695 25.844C57.3829 25.844 64.9397 26.9756 72.5834 29.3257C73.1046 29.4998 73.4954 29.9785 73.5823 30.5007C74.1469 34.1565 73.8863 37.8992 73.7995 41.2068Z" fill="#2C2D30"/>
<path d="M73.7995 41.2068C73.7995 41.8161 73.2349 42.2948 72.6269 42.2077C64.9398 41.2938 57.4264 40.8586 49.8696 40.9021V25.844C57.383 25.844 64.9398 26.9756 72.5835 29.3257C73.1046 29.4998 73.4955 29.9785 73.5824 30.5007C74.147 34.1565 73.8864 37.8992 73.7995 41.2068Z" fill="#28292B"/>
</g>
</svg>
