<svg width="17" height="16" viewBox="0 0 17 16" fill="none" xmlns="http://www.w3.org/2000/svg">
<path d="M2.54206 10.8411L3.58879 9.79439C2.99065 9.27103 2.39252 8.74766 1.86916 8.07477C3.58879 5.98131 5.45794 4.71028 7.40187 4.41121C5.83178 4.85981 4.63551 6.28037 4.63551 8C4.63551 8.2243 4.63551 8.4486 4.71028 8.6729L6.35514 7.02804C6.57944 6.57944 6.95327 6.20561 7.40187 5.98131L10.3178 3.06542C9.71963 2.91589 9.04673 2.84112 8.4486 2.84112C5.53271 2.84112 2.69159 4.48598 0.373832 7.5514L0 8L0.373832 8.4486C1.04673 9.42056 1.79439 10.1682 2.54206 10.8411Z" fill="white" fill-opacity="0.3"/>
<path d="M13.2336 4.33645L16.5234 1.04673L15.4019 0L0.448598 14.9533L1.49533 16L5.08411 12.4112C6.20561 12.9346 7.3271 13.1589 8.4486 13.1589C11.3645 13.1589 14.2056 11.514 16.5234 8.4486L16.8972 8L16.5234 7.5514C15.5514 6.20561 14.3551 5.15888 13.2336 4.33645ZM10.6168 8C10.6168 9.27103 9.64486 10.243 8.37383 10.243C8.07477 10.243 7.7757 10.1682 7.47664 10.0935L10.3925 7.17757C10.5421 7.40187 10.6168 7.70093 10.6168 8ZM6.35514 11.1402C6.65421 11.3645 7.02804 11.514 7.40187 11.5888C7.02804 11.514 6.57944 11.4393 6.20561 11.2897L6.35514 11.1402ZM9.04673 11.6636C10.7664 11.3645 12.1122 9.79439 12.1122 8C12.1122 7.25234 11.8879 6.57944 11.514 6.05608L12.1122 5.45794C13.0841 6.05607 14.0561 6.95327 15.028 8.07477C13.1589 10.243 11.1402 11.4393 9.04673 11.6636Z" fill="white" fill-opacity="0.3"/>
</svg>
