<svg width="24" height="24" viewBox="0 0 24 24" fill="none" xmlns="http://www.w3.org/2000/svg">
<path d="M22 19.8C22 15.51 18.59 12.1 14.3 12.1H7.7C3.41 12.1 0 15.51 0 19.8V22H22V19.8ZM2.2 19.8C2.2 16.72 4.62 14.3 7.7 14.3H14.3C17.38 14.3 19.8 16.72 19.8 19.8H2.2Z" fill="white" fill-opacity="0.6"/>
<path d="M16.5 5.5C16.5 2.42 14.08 0 11 0C7.91997 0 5.49997 2.42 5.49997 5.5C5.49997 8.58 7.91997 11 11 11C14.08 11 16.5 8.58 16.5 5.5ZM7.69997 5.5C7.69997 3.63 9.12997 2.2 11 2.2C12.87 2.2 14.3 3.63 14.3 5.5C14.3 7.37 12.87 8.8 11 8.8C9.12997 8.8 7.69997 7.37 7.69997 5.5Z" fill="white" fill-opacity="0.6"/>
</svg>
