<svg width="24" height="24" viewBox="0 0 24 24" fill="none" xmlns="http://www.w3.org/2000/svg">
<path d="M15.8571 9.42857C15.8571 5.89286 12.9643 3 9.42857 3C5.89286 3 3 5.89286 3 9.42857C3 12.9643 5.89286 15.8571 9.42857 15.8571C10.875 15.8571 12.2411 15.375 13.3661 14.4911L13.9286 15.0536L13.125 15.8571L18.2679 21L21 18.2679L15.8571 13.125L15.0536 13.9286L14.4911 13.3661C15.375 12.2411 15.8571 10.875 15.8571 9.42857ZM18.75 18.2679L18.2679 18.75L15.375 15.8571L15.8571 15.375L18.75 18.2679ZM9.42857 14.25C6.77679 14.25 4.60714 12.0804 4.60714 9.42857C4.60714 6.77679 6.77679 4.60714 9.42857 4.60714C12.0804 4.60714 14.25 6.77679 14.25 9.42857C14.25 12.0804 12.0804 14.25 9.42857 14.25Z" fill="white" fill-opacity="0.6"/>
</svg>
